<svg height="480pt" viewBox="0 0 480.0001 480" width="480pt" xmlns="http://www.w3.org/2000/svg"><path d="m467.28125 67.28125-30.5625-30.5625c-3.007812-3.019531-7.09375-4.714844-11.359375-4.71875h-25.359375v88c-.027344 8.824219-7.175781 15.972656-16 16h-128c-8.824219-.027344-15.972656-7.175781-16-16v-16h-80c-8.824219-.027344-15.972656-7.175781-16-16v-56h-120c-8.824219.027344-15.972656 7.175781-16 16v408c.027344 8.824219 7.175781 15.972656 16 16h432c8.824219-.027344 15.972656-7.175781 16-16v-377.359375c0-4.265625-1.699219-8.351563-4.71875-11.359375zm-91.28125 300.71875h-112v-32h40l-64-80-64 80h40v32h-72c-39.765625 0-72-32.234375-72-72s32.234375-72 72-72c1.28125 0 2.480469.160156 3.679688.160156 21.535156-41.636718 68.285156-63.691406 114.113281-53.835937 45.828125 9.859375 79.375 49.1875 81.886719 95.996093 19.734374-13.992187 46.21875-13.734374 65.675781.644532 19.453125 14.375 27.480469 39.621094 19.894531 62.589844-7.582031 22.972656-29.058594 38.476562-53.25 38.445312zm0 0" fill="#78b9eb"/><g fill="#006df0"><path d="m472.96875 61.65625-30.625-30.625c-4.492188-4.519531-10.605469-7.050781-16.976562-7.03125h-17.367188c0-13.253906-10.746094-24-24-24h-128c-13.253906 0-24 10.746094-24 24h-208c-13.253906 0-24 10.746094-24 24v408c0 13.253906 10.746094 24 24 24h432c13.253906 0 24-10.746094 24-24v-377.375c.019531-6.371094-2.515625-12.480469-7.03125-16.96875zm-224.96875-37.65625c0-4.417969 3.582031-8 8-8h128c4.417969 0 8 3.582031 8 8v96c0 4.417969-3.582031 8-8 8h-128c-4.417969 0-8-3.582031-8-8zm-16 16v56h-72c-4.417969 0-8-3.582031-8-8v-48zm232 416c0 4.417969-3.582031 8-8 8h-432c-4.417969 0-8-3.582031-8-8v-408c0-4.417969 3.582031-8 8-8h112v48c0 13.253906 10.746094 24 24 24h72v8c0 13.253906 10.746094 24 24 24h128c13.253906 0 24-10.746094 24-24v-80h17.367188c2.125 0 4.164062.839844 5.664062 2.34375l30.625 30.625c1.492188 1.503906 2.335938 3.535156 2.34375 5.65625zm0 0"/><path d="m352 32h16v80h-16zm0 0"/><path d="m40 416h16c4.417969 0 8 3.582031 8 8v16c0 4.417969-3.582031 8-8 8h-16c-4.417969 0-8-3.582031-8-8v-16c0-4.417969 3.582031-8 8-8zm0 0"/><path d="m424 416h16c4.417969 0 8 3.582031 8 8v16c0 4.417969-3.582031 8-8 8h-16c-4.417969 0-8-3.582031-8-8v-16c0-4.417969 3.582031-8 8-8zm0 0"/><path d="m440 312c-.039062-35.328125-28.671875-63.960938-64-64-8.839844-.011719-17.585938 1.824219-25.671875 5.390625-7.796875-46.574219-44-83.238281-90.476563-91.625-46.472656-8.382813-93.207031 13.320313-116.789062 54.234375-44.179688.257812-79.789062 36.285156-79.53125 80.46875s36.285156 79.789062 80.46875 79.53125h64v72h64v-72h104c35.328125-.039062 63.960938-28.671875 64-64zm-184 120h-32v-104h-31.351562l47.351562-59.199219 47.351562 59.199219h-31.351562zm16-88h48.648438l-80.648438-100.800781-80.648438 100.800781h48.648438v16h-64c-35.347656 0-64-28.652344-64-64s28.652344-64 64-64c.65625 0 1.289062.046875 1.929688.097656l1.367187.078125c3.144531.214844 6.109375-1.480469 7.511719-4.304687 19.859375-38.441406 63.007812-58.820313 105.3125-49.730469 42.304687 9.089844 73.28125 45.386719 75.597656 88.59375.15625 2.910156 1.886719 5.507813 4.507812 6.773437 2.625 1.269532 5.730469 1.011719 8.109376-.675781 16.917968-11.984375 39.621093-11.753906 56.292968.578125 16.667969 12.332032 23.535156 33.972656 17.027344 53.65625-6.507812 19.6875-24.921875 32.96875-45.65625 32.933594h-104zm0 0"/></g></svg>